# xmcd
#
# Track frame offsets:
#   150
#   2795
#   13942
#
# Disc length: 217 seconds
#
# Revision: 0
# Processed by: cddbd v1.5.2PL0 Copyright (c) Steve Scherf et al.
# Submitted via: GXTranscoder 2.0.1939
#
DISCID=1a00d703
DTITLE=Guy Mitchell - Singing The Bues
DYEAR=1900
DGENRE=Blues
TTITLE0=Gut ist uns nicht genug
TTITLE1=Singing The Blues
TTITLE2=Gut ist uns nicht genug (Besser)
EXTD=
EXTT0=
EXTT1=
EXTT2=
PLAYORDER=
